<!-- Generate Textures Icon - Gear with texture -->
<svg xmlns="http://www.w3.org/2000/svg" viewBox="0 0 24 24" width="24" height="24">
  <defs>
    <style>
      .icon-path { fill: none; stroke: currentColor; stroke-width: 2; stroke-linecap: round; stroke-linejoin: round; }
    </style>
  </defs>
  <!-- Gear shape -->
  <circle class="icon-path" cx="12" cy="12" r="3"/>
  <path class="icon-path" d="M12 1l2.09 2.09A10 10 0 0 1 16.17 2l1.4 1.4A10 10 0 0 1 18.66 5.57L21 7.91V16.09l-2.34 2.34A10 10 0 0 1 17.57 20.83l-1.4 1.4A10 10 0 0 1 14.09 23.91L12 22l-2.09 2.09A10 10 0 0 1 7.83 22l-1.4 -1.4A10 10 0 0 1 5.34 18.43L3 16.09V7.91l2.34 -2.34A10 10 0 0 1 6.43 3.17l1.4 -1.4A10 10 0 0 1 9.91 1.09L12 1z"/>
  <!-- Texture pattern inside -->
  <path class="icon-path" d="M10 10h4v4h-4z" opacity="0.6"/>
  <path class="icon-path" d="M10 10l1 1"/>
  <path class="icon-path" d="M12 10l1 1"/>
  <path class="icon-path" d="M10 12l1 1"/>
  <path class="icon-path" d="M12 12l1 1"/>
</svg>