<!-- New Model Icon - Folder with 3D cube -->
<svg xmlns="http://www.w3.org/2000/svg" viewBox="0 0 24 24" width="24" height="24">
  <defs>
    <style>
      .icon-path { fill: none; stroke: currentColor; stroke-width: 2; stroke-linecap: round; stroke-linejoin: round; }
    </style>
  </defs>
  <!-- Folder base -->
  <path class="icon-path" d="M4 4h5l2 3h9a1 1 0 0 1 1 1v9a1 1 0 0 1-1 1H4a1 1 0 0 1-1-1V5a1 1 0 0 1 1-1z"/>
  <!-- 3D Cube inside -->
  <path class="icon-path" d="M9 10h3v3h-3z"/>
  <path class="icon-path" d="M12 10l2 -2v3l-2 2"/>
  <path class="icon-path" d="M12 13l2 -2"/>
  <path class="icon-path" d="M9 13l2 -2"/>
  <!-- Plus symbol -->
  <circle class="icon-path" cx="18" cy="7" r="3" fill="currentColor" opacity="0.9"/>
  <path d="M17 7h2M18 6v2" stroke="white" stroke-width="1.5" stroke-linecap="round"/>
</svg>