<!-- Save Model Icon - Floppy disk with 3D cube -->
<svg xmlns="http://www.w3.org/2000/svg" viewBox="0 0 24 24" width="24" height="24">
  <defs>
    <style>
      .icon-path { fill: none; stroke: currentColor; stroke-width: 2; stroke-linecap: round; stroke-linejoin: round; }
    </style>
  </defs>
  <!-- Floppy disk outline -->
  <path class="icon-path" d="M6 4h10l4 4v10a2 2 0 0 1-2 2H6a2 2 0 0 1-2-2V6a2 2 0 0 1 2-2z"/>
  <!-- Floppy disk details -->
  <path class="icon-path" d="M8 4v4h6V4"/>
  <rect class="icon-path" x="8" y="14" width="8" height="4" rx="1"/>
  <!-- 3D Cube overlay -->
  <path class="icon-path" d="M10 10h2v2h-2z" opacity="0.8"/>
  <path class="icon-path" d="M12 10l1 -1v2l-1 1" opacity="0.8"/>
  <path class="icon-path" d="M12 12l1 -1" opacity="0.8"/>
  <path class="icon-path" d="M10 12l1 -1" opacity="0.8"/>
</svg>