<?xml version="1.0" encoding="UTF-8"?>
<svg width="32" height="32" viewBox="0 0 32 32" xmlns="http://www.w3.org/2000/svg">
  <!-- Minimalist Move/Transform tool icon - Four-way arrows -->

  <!-- Center circle -->
  <circle cx="16" cy="16" r="3"
          fill="#4A90E2" stroke="#2E5C8A" stroke-width="1.5"/>

  <!-- Up arrow -->
  <path d="M 16 5 L 19 9 L 17 9 L 17 13 L 15 13 L 15 9 L 13 9 Z"
        fill="#4A90E2" stroke="#2E5C8A" stroke-width="1.5" stroke-linejoin="round"/>

  <!-- Down arrow -->
  <path d="M 16 27 L 13 23 L 15 23 L 15 19 L 17 19 L 17 23 L 19 23 Z"
        fill="#4A90E2" stroke="#2E5C8A" stroke-width="1.5" stroke-linejoin="round"/>

  <!-- Left arrow -->
  <path d="M 5 16 L 9 13 L 9 15 L 13 15 L 13 17 L 9 17 L 9 19 Z"
        fill="#4A90E2" stroke="#2E5C8A" stroke-width="1.5" stroke-linejoin="round"/>

  <!-- Right arrow -->
  <path d="M 27 16 L 23 13 L 23 15 L 19 15 L 19 17 L 23 17 L 23 19 Z"
        fill="#4A90E2" stroke="#2E5C8A" stroke-width="1.5" stroke-linejoin="round"/>
</svg>
