<?xml version="1.0" encoding="UTF-8"?>
<svg width="32" height="32" viewBox="0 0 32 32" xmlns="http://www.w3.org/2000/svg">
  <!-- Move/Transform tool icon - shows selection with transform handles -->

  <!-- Selection rectangle -->
  <rect x="8" y="9" width="16" height="14"
        fill="none"
        stroke="#3399FF"
        stroke-width="1.5"
        stroke-dasharray="3,2"/>

  <!-- Corner resize handles -->
  <rect x="6" y="7" width="4" height="4" fill="#FFFFFF" stroke="#3399FF" stroke-width="1.5"/>
  <rect x="22" y="7" width="4" height="4" fill="#FFFFFF" stroke="#3399FF" stroke-width="1.5"/>
  <rect x="6" y="19" width="4" height="4" fill="#FFFFFF" stroke="#3399FF" stroke-width="1.5"/>
  <rect x="22" y="19" width="4" height="4" fill="#FFFFFF" stroke="#3399FF" stroke-width="1.5"/>

  <!-- Edge resize handles -->
  <rect x="14" y="7" width="4" height="4" fill="#FFFFFF" stroke="#3399FF" stroke-width="1.5"/>
  <rect x="14" y="19" width="4" height="4" fill="#FFFFFF" stroke="#3399FF" stroke-width="1.5"/>
  <rect x="6" y="13" width="4" height="4" fill="#FFFFFF" stroke="#3399FF" stroke-width="1.5"/>
  <rect x="22" y="13" width="4" height="4" fill="#FFFFFF" stroke="#3399FF" stroke-width="1.5"/>

  <!-- Rotation handle line (from top center to rotation handle) -->
  <line x1="16" y1="7" x2="16" y2="4" stroke="#3399FF" stroke-width="1.5"/>

  <!-- Rotation handle (circle at top) -->
  <circle cx="16" cy="4" r="2.5" fill="#FFFFFF" stroke="#3399FF" stroke-width="1.5"/>
  <!-- Crosshair in rotation handle -->
  <line x1="14.5" y1="4" x2="17.5" y2="4" stroke="#3399FF" stroke-width="1"/>
  <line x1="16" y1="2.5" x2="16" y2="5.5" stroke="#3399FF" stroke-width="1"/>

  <!-- Move cursor in center (subtle four-way arrows) -->
  <g opacity="0.6">
    <!-- Vertical line -->
    <line x1="16" y1="14" x2="16" y2="18" stroke="#4A90E2" stroke-width="1" stroke-linecap="round"/>
    <!-- Horizontal line -->
    <line x1="14" y1="16" x2="18" y2="16" stroke="#4A90E2" stroke-width="1" stroke-linecap="round"/>
    <!-- Up arrow -->
    <path d="M 16 14 L 15 15 M 16 14 L 17 15" stroke="#4A90E2" stroke-width="1" stroke-linecap="round" fill="none"/>
    <!-- Down arrow -->
    <path d="M 16 18 L 15 17 M 16 18 L 17 17" stroke="#4A90E2" stroke-width="1" stroke-linecap="round" fill="none"/>
    <!-- Left arrow -->
    <path d="M 14 16 L 15 15 M 14 16 L 15 17" stroke="#4A90E2" stroke-width="1" stroke-linecap="round" fill="none"/>
    <!-- Right arrow -->
    <path d="M 18 16 L 17 15 M 18 16 L 17 17" stroke="#4A90E2" stroke-width="1" stroke-linecap="round" fill="none"/>
  </g>
</svg>
